<?xml version="1.0" encoding="UTF-8"?>
<svg version="1.1" xmlns="http://www.w3.org/2000/svg" width="1000" height="250">
<path d="M0 0 C1.76753535 1.76753535 1.17086061 4.31558806 1.20532227 6.71313477 C1.2352401 8.54492027 1.2352401 8.54492027 1.26576233 10.41371155 C1.28274791 11.75627513 1.29962667 13.09884007 1.31640625 14.44140625 C1.33696947 15.80761861 1.35796577 17.17382451 1.37937927 18.5400238 C1.43466535 22.14194524 1.48404563 25.74392471 1.53222656 29.34594727 C1.58239403 33.01909572 1.63810485 36.69215955 1.69335938 40.36523438 C1.80102082 47.57675132 1.90244787 54.78833847 2 62 C3.11036621 62.01981934 4.22073242 62.03963867 5.36474609 62.06005859 C9.47614602 62.13601081 13.58718718 62.2247436 17.69824219 62.31738281 C19.47909473 62.35571565 21.26002584 62.39056089 23.04101562 62.421875 C25.59794234 62.46743271 28.1543261 62.52544107 30.7109375 62.5859375 C31.50994476 62.59748871 32.30895203 62.60903992 33.13217163 62.62094116 C38.77225659 62.77225659 38.77225659 62.77225659 41 65 C41.31884766 67.79736328 41.31884766 67.79736328 41.4140625 71.3203125 C41.45273438 72.57714844 41.49140625 73.83398438 41.53125 75.12890625 C41.57765625 77.10697266 41.57765625 77.10697266 41.625 79.125 C41.66318029 80.46486918 41.70223206 81.80471383 41.7421875 83.14453125 C41.8367203 86.42954619 41.92227156 89.71455138 42 93 C42.78141357 91.90026855 42.78141357 91.90026855 43.57861328 90.77832031 C58.02947669 70.63711691 76.29919299 58.55999482 100.75 53.75 C123.85087269 50.33667844 149.43897151 54.47248507 168.67626953 68.19580078 C177.02156982 74.45417768 182.92306098 81.58949603 189 90 C189.02505615 89.06615479 189.0501123 88.13230957 189.07592773 87.17016602 C189.17086928 83.71674811 189.27011258 80.2635104 189.37231445 76.81030273 C189.41571813 75.31360731 189.45738913 73.81686061 189.49731445 72.32006836 C189.55488616 70.17285688 189.61861716 68.02590479 189.68359375 65.87890625 C189.72025146 64.5854126 189.75690918 63.29191895 189.79467773 61.95922852 C190 59 190 59 191 58 C193.20324974 57.90039848 195.4097349 57.87200243 197.61523438 57.87060547 C198.30627762 57.86885315 198.99732086 57.86710083 199.70930481 57.86529541 C202.00414507 57.86087746 204.29890889 57.86381467 206.59375 57.8671875 C208.18176285 57.86651444 209.76977559 57.86554441 211.35778809 57.86428833 C214.6901955 57.86281143 218.02257616 57.86496564 221.35498047 57.86962891 C225.6359851 57.8753262 229.91692705 57.87204715 234.19792938 57.86605644 C237.47833736 57.8624506 240.75873037 57.86358952 244.03913879 57.86618423 C245.6180675 57.86685344 247.19699754 57.8660253 248.77592468 57.86370468 C250.97890853 57.86117777 253.18178949 57.86501925 255.38476562 57.87060547 C257.26887146 57.87179886 257.26887146 57.87179886 259.19104004 57.87301636 C262 58 262 58 263 59 C263.08685603 60.56172745 263.10702219 62.12729344 263.09765625 63.69140625 C263.09443359 64.63564453 263.09121094 65.57988281 263.08789062 66.55273438 C263.07951172 67.54595703 263.07113281 68.53917969 263.0625 69.5625 C263.05798828 70.55958984 263.05347656 71.55667969 263.04882812 72.58398438 C263.03700007 75.05604849 263.02051849 77.52799518 263 80 C265.73321201 77.88817721 267.94974644 76.06548191 270.0625 73.3125 C279.60079878 61.53165448 294.36493383 55.22632492 309 53 C324.15361242 51.64434595 339.55391499 54.76470085 351.75390625 64.109375 C360.78625078 71.9167667 370.01823995 82.56437267 371 95 C371.66 95 372.32 95 373 95 C373.37318359 93.69095703 373.37318359 93.69095703 373.75390625 92.35546875 C379.46671216 76.97208231 394.57561656 64.82582431 409 58 C426.18848197 51.02731392 443.68441223 51.55144068 461.125 57.625 C470.17212335 61.50020934 477.6261967 68.67959718 485 75 C485.33 50.25 485.66 25.5 486 0 C491.22268605 0 494.64431986 0.18268245 499.53027344 1.34521484 C500.78136902 1.63907074 502.0324646 1.93292664 503.32147217 2.23568726 C504.66752394 2.56042202 506.01348959 2.88551391 507.359375 3.2109375 C508.75453691 3.54296346 510.14982312 3.87446752 511.54522705 4.20547485 C514.45797108 4.89825 517.36933265 5.5964899 520.27978516 6.29882812 C524.00885128 7.19836341 527.74076577 8.08535412 531.47375107 8.96846581 C534.35042964 9.65022428 537.22565988 10.3379309 540.1004715 11.02751541 C541.4763792 11.35692637 542.8526957 11.68463468 544.22942352 12.01060104 C546.15014065 12.46644291 548.06877806 12.93102117 549.98730469 13.39599609 C551.07871765 13.65802826 552.17013062 13.92006042 553.2946167 14.19003296 C556 15 556 15 559 17 C559.31632698 19.54003384 559.43743016 21.84236281 559.43237305 24.38720703 C559.4425647 25.14827759 559.45275635 25.90934814 559.46325684 26.69348145 C559.49350794 29.21499883 559.50267096 31.73613712 559.51171875 34.2578125 C559.52855651 36.00374628 559.54670552 37.74966788 559.56611633 39.49557495 C559.61372076 44.0953999 559.64346236 48.69517544 559.66955566 53.29516602 C559.69930871 57.98724122 559.74585696 62.679146 559.79101562 67.37109375 C559.87716741 76.58064021 559.94445967 85.79022164 560 95 C560.47304565 94.38688461 560.94609131 93.77376923 561.43347168 93.14207458 C562.05806274 92.33520706 562.68265381 91.52833954 563.32617188 90.69702148 C564.25230286 89.4989109 564.25230286 89.4989109 565.19714355 88.27659607 C579.94190341 69.65733084 600.67767634 58.02664428 624 54 C624.72703125 53.86980469 625.4540625 53.73960938 626.203125 53.60546875 C650.74276675 50.09311545 676.89844423 55.38376416 697.3203125 69.6171875 C699.60874957 71.34746919 701.80925344 73.14775421 704 75 C704.825 75.67933594 705.65 76.35867187 706.5 77.05859375 C707.345625 77.78175781 708.19125 78.50492187 709.0625 79.25 C709.81660156 79.89453125 710.57070313 80.5390625 711.34765625 81.203125 C715.3722361 85.44701185 718.63773965 90.22399691 722 95 C722.02505615 93.91468994 722.0501123 92.82937988 722.07592773 91.71118164 C722.16983755 87.698684 722.27009767 83.68636618 722.37231445 79.67407227 C722.41572573 77.93485712 722.45739612 76.19559765 722.49731445 74.45629883 C722.55486768 71.96161512 722.6186042 69.4671559 722.68359375 66.97265625 C722.70030624 66.19036148 722.71701874 65.40806671 722.73423767 64.60206604 C722.88612829 59.11387171 722.88612829 59.11387171 724 58 C726.20324974 57.90039848 728.4097349 57.87200243 730.61523438 57.87060547 C731.30627762 57.86885315 731.99732086 57.86710083 732.70930481 57.86529541 C735.00414507 57.86087746 737.29890889 57.86381467 739.59375 57.8671875 C741.18176285 57.86651444 742.76977559 57.86554441 744.35778809 57.86428833 C747.6901955 57.86281143 751.02257616 57.86496564 754.35498047 57.86962891 C758.6359851 57.8753262 762.91692705 57.87204715 767.19792938 57.86605644 C770.47833736 57.8624506 773.75873037 57.86358952 777.03913879 57.86618423 C778.6180675 57.86685344 780.19699754 57.8660253 781.77592468 57.86370468 C783.97890853 57.86117777 786.18178949 57.86501925 788.38476562 57.87060547 C790.26887146 57.87179886 790.26887146 57.87179886 792.19104004 57.87301636 C795 58 795 58 796 59 C796.10945109 62.07709292 796.1542411 65.13255897 796.15771484 68.21044922 C796.16533592 69.66183037 796.16533592 69.66183037 796.17311096 71.14253235 C796.18384363 73.25311236 796.19245234 75.36370396 796.19923019 77.47430038 C796.21099538 80.82115402 796.23044618 84.16787722 796.25234985 87.51467896 C796.3140169 97.03415538 796.36786506 106.55362185 796.40136719 116.07324219 C796.42239375 121.89058525 796.45777177 127.70769627 796.50212479 133.52490616 C796.51623377 135.73749164 796.52499563 137.95011825 796.52817917 140.16274643 C796.53312552 143.27394334 796.55638273 146.38453331 796.58349609 149.49560547 C796.58048996 150.39891098 796.57748383 151.30221649 796.5743866 152.2328949 C796.69087049 161.30029097 798.12793368 169.81686633 804.40234375 176.66015625 C808.71558012 180.27736915 812.69658288 180.50218657 818.1796875 180.36328125 C822.72830129 179.77737947 825.78602509 178.27227831 829 175 C834.52152534 166.72459669 835.14496836 158.72474033 835.20532227 149.04736328 C835.22017166 147.5683831 835.22017166 147.5683831 835.23532104 146.05952454 C835.26681018 142.81314463 835.2916436 139.5667501 835.31640625 136.3203125 C835.33698665 134.06443917 835.3579834 131.8085696 835.37937927 129.55270386 C835.43448777 123.62458347 835.48394645 117.69642892 835.53222656 111.76824951 C835.59137185 104.65042396 835.65753794 97.53266062 835.72252655 90.41488647 C835.82039482 79.60996242 835.90934757 68.80499786 836 58 C859.76 58 883.52 58 908 58 C908 114.1 908 170.2 908 228 C869.10486891 240.54681648 869.10486891 240.54681648 858.59082031 243.88134766 C856.97957149 244.39322332 855.36892747 244.90700538 853.75878906 245.42236328 C851.34568583 246.19453747 848.93089365 246.96119268 846.515625 247.7265625 C845.79715393 247.95767731 845.07868286 248.18879211 844.33843994 248.4269104 C841.43896461 249.33986538 839.0605376 250 836 250 C835.67 241.75 835.34 233.5 835 225 C830.71298407 228.54621015 830.71298407 228.54621015 826.6875 232.375 C814.46918444 244.30916869 800.28736168 250.41526737 783.25 250.3125 C782.27571045 250.30686035 781.3014209 250.3012207 780.29760742 250.29541016 C764.73272774 250.0331172 752.64543168 245.19431628 741.28515625 234.41015625 C732.93018242 225.59815821 728.72823577 215.4040153 725 204 C724.18208984 205.12535156 724.18208984 205.12535156 723.34765625 206.2734375 C706.34160461 229.35515545 685.67658838 244.53479522 657.046875 249.58325195 C636.56420022 252.38484858 615.61765858 250.13570371 597 241 C595.60201172 240.32130859 595.60201172 240.32130859 594.17578125 239.62890625 C587.44419897 236.16453545 581.77246984 231.86621178 576 227 C575.17628906 226.37480469 574.35257813 225.74960938 573.50390625 225.10546875 C570.72653742 222.77005253 568.58030272 220.26744058 566.3125 217.4375 C565.54550781 216.48746094 564.77851562 215.53742188 563.98828125 214.55859375 C562 212 562 212 560 209 C559.67 219.89 559.34 230.78 559 242 C555.33435265 243.83282367 553.44379596 244.36187003 549.50390625 244.77783203 C548.40175781 244.89780548 547.29960938 245.01777893 546.1640625 245.14138794 C544.97554687 245.26230804 543.78703125 245.38322815 542.5625 245.5078125 C541.33144531 245.63815887 540.10039063 245.76850525 538.83203125 245.90280151 C535.55584598 246.24727453 532.2789945 246.58429663 529.00177002 246.91870117 C525.7072382 247.25822971 522.4143367 247.61306646 519.12109375 247.96484375 C516.58082228 248.23006005 514.0404602 248.49441015 511.5 248.7578125 C510.32767822 248.88278107 509.15535645 249.00774963 507.94750977 249.13650513 C506.82014404 249.25017426 505.69277832 249.36384338 504.53125 249.48095703 C503.07041992 249.63179245 503.07041992 249.63179245 501.58007812 249.78567505 C496.39550966 250.09605442 491.19385074 250 486 250 C486 242.08 486 234.16 486 226 C480.01903555 231.23279103 480.01903555 231.23279103 474.125 236.5625 C460.04108067 248.73581012 444.61730027 251.24871844 426.53955078 250.22314453 C410.24631168 248.7914948 395.80457447 239.95634814 385 228 C382.2801381 224.70766659 379.62616511 221.36739804 377 218 C376.97494385 218.93384521 376.9498877 219.86769043 376.92407227 220.82983398 C376.82913072 224.28325189 376.72988742 227.7364896 376.62768555 231.18969727 C376.58428187 232.68639269 376.54261087 234.18313939 376.50268555 235.67993164 C376.44511384 237.82714312 376.38138284 239.97409521 376.31640625 242.12109375 C376.27974854 243.4145874 376.24309082 244.70808105 376.20532227 246.04077148 C376 249 376 249 375 250 C372.79675026 250.09960152 370.5902651 250.12799757 368.38476562 250.12939453 C367.69372238 250.13114685 367.00267914 250.13289917 366.29069519 250.13470459 C363.99585493 250.13912254 361.70109111 250.13618533 359.40625 250.1328125 C357.81823715 250.13348556 356.23022441 250.13445559 354.64221191 250.13571167 C351.3098045 250.13718857 347.97742384 250.13503436 344.64501953 250.13037109 C340.3640149 250.1246738 336.08307295 250.12795285 331.80207062 250.13394356 C328.52166264 250.1375494 325.24126963 250.13641048 321.96086121 250.13381577 C320.3819325 250.13314656 318.80300246 250.1339747 317.22407532 250.13629532 C315.02109147 250.13882223 312.81821051 250.13498075 310.61523438 250.12939453 C308.73112854 250.12820114 308.73112854 250.12820114 306.80895996 250.12698364 C304 250 304 250 303 249 C302.88903094 247.60626352 302.8460117 246.20703892 302.83073425 244.80897522 C302.81210075 243.45287643 302.81210075 243.45287643 302.79309082 242.06938171 C302.7842688 241.06945694 302.77544678 240.06953217 302.76635742 239.03930664 C302.75312943 237.99208435 302.73990143 236.94486206 302.72627258 235.86590576 C302.69763111 233.58181622 302.67101304 231.29770065 302.64613914 229.01356697 C302.60528516 225.39388997 302.55604899 221.77442406 302.50398254 218.15489197 C302.35610722 207.8598376 302.21301883 197.56480561 302.10131836 187.26928711 C302.03245271 180.97844294 301.94475239 174.68809861 301.84493446 168.39767265 C301.81048593 166.00290313 301.78300945 163.60802246 301.76274681 161.2130909 C301.73354328 157.84996096 301.6803025 154.48797524 301.62182617 151.12524414 C301.61770218 149.6526841 301.61770218 149.6526841 301.61349487 148.15037537 C301.43070581 140.01447673 299.69792985 132.421871 293.875 126.4375 C289.62753883 123.22911732 285.22937812 122.63790135 280 123 C274.74207689 124.5515183 271.38952735 126.69438418 268 131 C264.37661232 137.9777438 263.43272544 144.14842653 263.56176758 151.92578125 C263.56278976 152.96766098 263.56381195 154.00954071 263.56486511 155.08299255 C263.57268808 158.49319577 263.60859717 161.90248756 263.64453125 165.3125 C263.65454181 167.69237559 263.66262492 170.07225999 263.66886902 172.45214844 C263.68972919 178.69202032 263.73376873 184.93150422 263.78363037 191.17120361 C263.85914362 201.18604781 263.8968358 211.20112797 263.93912315 221.21615601 C263.95685994 224.71619515 263.98297689 228.21609163 264.01069641 231.71606445 C264.02390763 233.84716739 264.03703004 235.97827088 264.05004883 238.109375 C264.05992828 239.08700302 264.06980774 240.06463104 264.07998657 241.07188416 C264.08439255 241.96049637 264.08879852 242.84910858 264.09333801 243.76464844 C264.09945508 244.53887146 264.10557215 245.31309448 264.11187458 246.11077881 C264 248 264 248 263 250 C253.76002448 250.02312524 244.52005886 250.04091601 235.28006077 250.05181217 C230.99000085 250.05704061 226.69996067 250.06413753 222.40991211 250.07543945 C218.273206 250.08626975 214.13651892 250.09227714 209.99979973 250.09487724 C208.41807696 250.09673124 206.83635529 250.10035136 205.25464058 250.10573006 C203.04677162 250.1129424 200.83898227 250.11399086 198.63110352 250.11352539 C197.37201675 250.115746 196.11292999 250.11796661 194.81568909 250.12025452 C192 250 192 250 191 249 C190.84193469 247.07521187 190.748865 245.1450079 190.68359375 243.21484375 C190.64169922 242.04501953 190.59980469 240.87519531 190.55664062 239.66992188 C190.51732422 238.43822266 190.47800781 237.20652344 190.4375 235.9375 C190.39431641 234.70193359 190.35113281 233.46636719 190.30664062 232.19335938 C190.20015802 229.12902665 190.09814576 226.06460927 190 223 C189.54616943 223.46543213 189.09233887 223.93086426 188.62475586 224.41040039 C171.88149673 241.40147835 149.62473373 249.99427404 125.92211914 250.24145508 C102.82981068 250.2925798 102.82981068 250.2925798 92 247 C90.83082031 246.64808594 89.66164062 246.29617187 88.45703125 245.93359375 C68.56822894 239.36183028 52.4222311 227.65718499 41 210 C41.00169189 211.28632324 41.00169189 211.28632324 41.00341797 212.59863281 C40.9934748 215.78995694 40.95687524 218.97956054 40.90234375 222.17041016 C40.88421005 223.54954304 40.87661057 224.92885726 40.87988281 226.30810547 C40.88274654 228.29410143 40.84420203 230.28002012 40.8046875 232.265625 C40.78897705 234.05661621 40.78897705 234.05661621 40.77294922 235.88378906 C40 239 40 239 37.19018555 241.33251953 C34.81165794 242.57575391 32.70868061 243.66262413 30.15234375 244.4140625 C29.47204102 244.61684814 28.79173828 244.81963379 28.09082031 245.02856445 C27.38022461 245.22538818 26.66962891 245.42221191 25.9375 245.625 C25.18436523 245.83664795 24.43123047 246.0482959 23.65527344 246.26635742 C1.63622273 252.28069049 -24.35784149 252.99575342 -45 242 C-58.28247385 234.15207804 -66.02212524 222.52939791 -69.8531189 207.69699097 C-71.88835284 198.13598083 -72.45575446 189.01346719 -72.4765625 179.2578125 C-72.49091723 177.71221596 -72.50668203 176.16663194 -72.52377319 174.62106323 C-72.56510501 170.60706027 -72.59045742 166.5931352 -72.61126709 162.57897949 C-72.64748525 156.10703526 -72.70796857 149.63528161 -72.76975632 143.16353989 C-72.78883734 140.90941169 -72.80056063 138.65533562 -72.81118774 136.40115356 C-72.82138869 135.03452431 -72.83174565 133.66789621 -72.84228516 132.30126953 C-72.85202866 130.50715134 -72.85202866 130.50715134 -72.86196899 128.67678833 C-72.69625641 126.08049215 -72.69625641 126.08049215 -74 125 C-75.34015221 124.84417697 -76.68758903 124.74955858 -78.03515625 124.68359375 C-78.84404297 124.64169922 -79.65292969 124.59980469 -80.48632812 124.55664062 C-81.33646484 124.51732422 -82.18660156 124.47800781 -83.0625 124.4375 C-84.34350586 124.37272461 -84.34350586 124.37272461 -85.65039062 124.30664062 C-87.76672037 124.20023298 -89.88333813 124.09958269 -92 124 C-92.02312792 116.19424805 -92.04091738 108.38850405 -92.05181217 100.58272648 C-92.05704002 96.9585404 -92.06413587 93.3343777 -92.07543945 89.71020508 C-92.08627184 86.21540025 -92.09227758 82.72061796 -92.09487724 79.22579765 C-92.09763551 77.23760611 -92.10544688 75.24942369 -92.11329651 73.26124573 C-92.11337204 72.06007614 -92.11344757 70.85890656 -92.11352539 69.62133789 C-92.115746 68.55766495 -92.11796661 67.493992 -92.12025452 66.39808655 C-92 64 -92 64 -91 63 C-85.06 62.67 -79.12 62.34 -73 62 C-72.67 47.15 -72.34 32.3 -72 17 C-67.06033104 15.14762414 -62.77824543 13.57179513 -57.75512695 12.37426758 C-56.59064529 12.09420364 -55.42616364 11.81413971 -54.22639465 11.52558899 C-52.99281723 11.23483994 -51.75923981 10.94409088 -50.48828125 10.64453125 C-49.18882922 10.33522737 -47.88944788 10.02562632 -46.59013367 9.71574402 C-43.88209249 9.07116288 -41.17319352 8.43035722 -38.46362305 7.79223633 C-34.99863876 6.975859 -31.53607368 6.14969683 -28.07409382 5.32068348 C-24.75509887 4.52739243 -21.43411068 3.74260787 -18.11328125 2.95703125 C-16.87363113 2.6602095 -15.63398102 2.36338776 -14.35676575 2.05757141 C-13.20174057 1.78696396 -12.04671539 1.51635651 -10.85668945 1.23754883 C-9.84379349 0.99788895 -8.83089752 0.75822906 -7.78730774 0.51130676 C-5.10374312 0.01903075 -2.72017773 -0.17319172 0 0 Z M101.3125 114.5 C96.84539918 120.44094021 94 127.62828693 94 135 C108.85 135 123.7 135 139 135 C137.94212985 126.53703878 136.27843026 118.85568928 129.70703125 112.93359375 C119.6646769 106.13493624 110.27378597 106.16392003 101.3125 114.5 Z M439 127 C431.68278577 137.36752282 429.82040911 147.4704045 431 160 C432.76305446 169.48972937 438.27984011 177.00414824 446.1640625 182.51171875 C452.88195161 185.99280674 460.5026217 186.34986246 467.70703125 184.1875 C476.00144841 180.51808043 481.92539433 174.24908312 485.5 165.9375 C488.59398851 156.08922408 488.33677345 144.89699692 484.2578125 135.3984375 C479.80058689 126.89925574 474.42338228 121.96363841 465.375 118.6875 C455.67893311 116.71237526 445.84504607 119.67739257 439 127 Z M1 125 C0.89133014 126.47182493 0.85097276 127.94877899 0.83886719 129.42456055 C0.82925964 130.36611496 0.8196521 131.30766937 0.80975342 132.27775574 C0.80550354 133.30371353 0.80125366 134.32967133 0.796875 135.38671875 C0.79117493 136.43648392 0.78547485 137.48624908 0.77960205 138.56782532 C0.77013302 140.79642727 0.76361056 143.02504335 0.75976562 145.25366211 C0.75009047 148.65568769 0.7190972 152.05710155 0.6875 155.45898438 C0.6809672 157.62239224 0.67571782 159.78580444 0.671875 161.94921875 C0.6595282 162.96505539 0.6471814 163.98089203 0.63446045 165.0275116 C0.6514264 170.43944971 0.90100277 174.35104162 4 179 C8.52182183 183.18268519 11.80422359 184.14965227 17.875 184.1875 C18.90367188 184.20167969 19.93234375 184.21585938 20.9921875 184.23046875 C24.05463488 183.99581369 26.23248861 183.29184572 29 182 C28.855625 181.14664063 28.71125 180.29328125 28.5625 179.4140625 C25.83526607 161.04311172 26.06923293 142.32497438 29 124 C24.52084672 123.97113662 20.04171709 123.95324813 15.5625 123.9375 C14.28310547 123.92912109 13.00371094 123.92074219 11.68554688 123.91210938 C10.47060547 123.90888672 9.25566406 123.90566406 8.00390625 123.90234375 C6.87799072 123.89710693 5.7520752 123.89187012 4.59204102 123.88647461 C2.07029129 123.70454552 2.07029129 123.70454552 1 125 Z M96 170 C94.67547101 172.88772193 94.67547101 172.88772193 95.8984375 175.19921875 C100.47422398 182.91026634 106.5619991 190.85355383 115.51171875 193.59765625 C129.00936492 195.78016419 139.66500529 193.39344874 150.90234375 185.6640625 C153.68844649 183.45385809 156.01140455 180.94098095 158.296875 178.22265625 C160 177 160 177 162.3828125 177.02734375 C165.72371492 178.26896271 167.56489694 180.02396002 170.125 182.5 C176.7570481 188.7551252 183.70428301 194.52821226 191 200 C190.67 190.1 190.34 180.2 190 170 C158.98 170 127.96 170 96 170 Z " fill="#F69320" transform="translate(92,0)"/>
<path d="M0 0 C1.76753535 1.76753535 1.17086061 4.31558806 1.20532227 6.71313477 C1.2352401 8.54492027 1.2352401 8.54492027 1.26576233 10.41371155 C1.28274791 11.75627513 1.29962667 13.09884007 1.31640625 14.44140625 C1.33696947 15.80761861 1.35796577 17.17382451 1.37937927 18.5400238 C1.43466535 22.14194524 1.48404563 25.74392471 1.53222656 29.34594727 C1.58239403 33.01909572 1.63810485 36.69215955 1.69335938 40.36523438 C1.80102082 47.57675132 1.90244787 54.78833847 2 62 C3.11036621 62.01981934 4.22073242 62.03963867 5.36474609 62.06005859 C9.47614602 62.13601081 13.58718718 62.2247436 17.69824219 62.31738281 C19.47909473 62.35571565 21.26002584 62.39056089 23.04101562 62.421875 C25.59794234 62.46743271 28.1543261 62.52544107 30.7109375 62.5859375 C31.50994476 62.59748871 32.30895203 62.60903992 33.13217163 62.62094116 C38.77225659 62.77225659 38.77225659 62.77225659 41 65 C41.31884766 67.79736328 41.31884766 67.79736328 41.4140625 71.3203125 C41.45273438 72.57714844 41.49140625 73.83398438 41.53125 75.12890625 C41.57765625 77.10697266 41.57765625 77.10697266 41.625 79.125 C41.66318029 80.46486918 41.70223206 81.80471383 41.7421875 83.14453125 C41.8367203 86.42954619 41.92227156 89.71455138 42 93 C42.78141357 91.90026855 42.78141357 91.90026855 43.57861328 90.77832031 C58.02947669 70.63711691 76.29919299 58.55999482 100.75 53.75 C123.85087269 50.33667844 149.43897151 54.47248507 168.67626953 68.19580078 C177.02156982 74.45417768 182.92306098 81.58949603 189 90 C189.02505615 89.06615479 189.0501123 88.13230957 189.07592773 87.17016602 C189.17086928 83.71674811 189.27011258 80.2635104 189.37231445 76.81030273 C189.41571813 75.31360731 189.45738913 73.81686061 189.49731445 72.32006836 C189.55488616 70.17285688 189.61861716 68.02590479 189.68359375 65.87890625 C189.72025146 64.5854126 189.75690918 63.29191895 189.79467773 61.95922852 C190 59 190 59 191 58 C193.20324974 57.90039848 195.4097349 57.87200243 197.61523438 57.87060547 C198.30627762 57.86885315 198.99732086 57.86710083 199.70930481 57.86529541 C202.00414507 57.86087746 204.29890889 57.86381467 206.59375 57.8671875 C208.18176285 57.86651444 209.76977559 57.86554441 211.35778809 57.86428833 C214.6901955 57.86281143 218.02257616 57.86496564 221.35498047 57.86962891 C225.6359851 57.8753262 229.91692705 57.87204715 234.19792938 57.86605644 C237.47833736 57.8624506 240.75873037 57.86358952 244.03913879 57.86618423 C245.6180675 57.86685344 247.19699754 57.8660253 248.77592468 57.86370468 C250.97890853 57.86117777 253.18178949 57.86501925 255.38476562 57.87060547 C257.26887146 57.87179886 257.26887146 57.87179886 259.19104004 57.87301636 C262 58 262 58 263 59 C263.08685603 60.56172745 263.10702219 62.12729344 263.09765625 63.69140625 C263.09443359 64.63564453 263.09121094 65.57988281 263.08789062 66.55273438 C263.07951172 67.54595703 263.07113281 68.53917969 263.0625 69.5625 C263.05798828 70.55958984 263.05347656 71.55667969 263.04882812 72.58398438 C263.03700007 75.05604849 263.02051849 77.52799518 263 80 C265.73321201 77.88817721 267.94974644 76.06548191 270.0625 73.3125 C279.60079878 61.53165448 294.36493383 55.22632492 309 53 C324.15361242 51.64434595 339.55391499 54.76470085 351.75390625 64.109375 C359.98304673 71.22249196 365.73281847 79.00125361 370 89 C370.31839844 89.68449219 370.63679688 90.36898437 370.96484375 91.07421875 C373.56952744 98.46588868 369.54373053 105.27766044 366.75439453 112.08544922 C356.56681721 137.94013575 358.6015904 173.55448003 369 199 C369.56589844 200.05703125 370.13179688 201.1140625 370.71484375 202.203125 C376.18690689 212.44341263 376.90647754 220.89320488 376.5 232.375 C376.47337274 233.98432539 376.44991944 235.59370651 376.4296875 237.203125 C376.23140409 248.76859591 376.23140409 248.76859591 375 250 C372.79675026 250.09960152 370.5902651 250.12799757 368.38476562 250.12939453 C367.69372238 250.13114685 367.00267914 250.13289917 366.29069519 250.13470459 C363.99585493 250.13912254 361.70109111 250.13618533 359.40625 250.1328125 C357.81823715 250.13348556 356.23022441 250.13445559 354.64221191 250.13571167 C351.3098045 250.13718857 347.97742384 250.13503436 344.64501953 250.13037109 C340.3640149 250.1246738 336.08307295 250.12795285 331.80207062 250.13394356 C328.52166264 250.1375494 325.24126963 250.13641048 321.96086121 250.13381577 C320.3819325 250.13314656 318.80300246 250.1339747 317.22407532 250.13629532 C315.02109147 250.13882223 312.81821051 250.13498075 310.61523438 250.12939453 C308.73112854 250.12820114 308.73112854 250.12820114 306.80895996 250.12698364 C304 250 304 250 303 249 C302.88903094 247.60626352 302.8460117 246.20703892 302.83073425 244.80897522 C302.81210075 243.45287643 302.81210075 243.45287643 302.79309082 242.06938171 C302.7842688 241.06945694 302.77544678 240.06953217 302.76635742 239.03930664 C302.75312943 237.99208435 302.73990143 236.94486206 302.72627258 235.86590576 C302.69763111 233.58181622 302.67101304 231.29770065 302.64613914 229.01356697 C302.60528516 225.39388997 302.55604899 221.77442406 302.50398254 218.15489197 C302.35610722 207.8598376 302.21301883 197.56480561 302.10131836 187.26928711 C302.03245271 180.97844294 301.94475239 174.68809861 301.84493446 168.39767265 C301.81048593 166.00290313 301.78300945 163.60802246 301.76274681 161.2130909 C301.73354328 157.84996096 301.6803025 154.48797524 301.62182617 151.12524414 C301.61770218 149.6526841 301.61770218 149.6526841 301.61349487 148.15037537 C301.43070581 140.01447673 299.69792985 132.421871 293.875 126.4375 C289.62753883 123.22911732 285.22937812 122.63790135 280 123 C274.74207689 124.5515183 271.38952735 126.69438418 268 131 C264.37661232 137.9777438 263.43272544 144.14842653 263.56176758 151.92578125 C263.56278976 152.96766098 263.56381195 154.00954071 263.56486511 155.08299255 C263.57268808 158.49319577 263.60859717 161.90248756 263.64453125 165.3125 C263.65454181 167.69237559 263.66262492 170.07225999 263.66886902 172.45214844 C263.68972919 178.69202032 263.73376873 184.93150422 263.78363037 191.17120361 C263.85914362 201.18604781 263.8968358 211.20112797 263.93912315 221.21615601 C263.95685994 224.71619515 263.98297689 228.21609163 264.01069641 231.71606445 C264.02390763 233.84716739 264.03703004 235.97827088 264.05004883 238.109375 C264.05992828 239.08700302 264.06980774 240.06463104 264.07998657 241.07188416 C264.08439255 241.96049637 264.08879852 242.84910858 264.09333801 243.76464844 C264.09945508 244.53887146 264.10557215 245.31309448 264.11187458 246.11077881 C264 248 264 248 263 250 C253.76002448 250.02312524 244.52005886 250.04091601 235.28006077 250.05181217 C230.99000085 250.05704061 226.69996067 250.06413753 222.40991211 250.07543945 C218.273206 250.08626975 214.13651892 250.09227714 209.99979973 250.09487724 C208.41807696 250.09673124 206.83635529 250.10035136 205.25464058 250.10573006 C203.04677162 250.1129424 200.83898227 250.11399086 198.63110352 250.11352539 C197.37201675 250.115746 196.11292999 250.11796661 194.81568909 250.12025452 C192 250 192 250 191 249 C190.84193469 247.07521187 190.748865 245.1450079 190.68359375 243.21484375 C190.64169922 242.04501953 190.59980469 240.87519531 190.55664062 239.66992188 C190.51732422 238.43822266 190.47800781 237.20652344 190.4375 235.9375 C190.39431641 234.70193359 190.35113281 233.46636719 190.30664062 232.19335938 C190.20015802 229.12902665 190.09814576 226.06460927 190 223 C189.54616943 223.46543213 189.09233887 223.93086426 188.62475586 224.41040039 C171.88149673 241.40147835 149.62473373 249.99427404 125.92211914 250.24145508 C102.82981068 250.2925798 102.82981068 250.2925798 92 247 C90.83082031 246.64808594 89.66164062 246.29617187 88.45703125 245.93359375 C68.56822894 239.36183028 52.4222311 227.65718499 41 210 C41.00169189 211.28632324 41.00169189 211.28632324 41.00341797 212.59863281 C40.9934748 215.78995694 40.95687524 218.97956054 40.90234375 222.17041016 C40.88421005 223.54954304 40.87661057 224.92885726 40.87988281 226.30810547 C40.88274654 228.29410143 40.84420203 230.28002012 40.8046875 232.265625 C40.78897705 234.05661621 40.78897705 234.05661621 40.77294922 235.88378906 C40 239 40 239 37.19018555 241.33251953 C34.81165794 242.57575391 32.70868061 243.66262413 30.15234375 244.4140625 C29.47204102 244.61684814 28.79173828 244.81963379 28.09082031 245.02856445 C27.38022461 245.22538818 26.66962891 245.42221191 25.9375 245.625 C25.18436523 245.83664795 24.43123047 246.0482959 23.65527344 246.26635742 C1.63622273 252.28069049 -24.35784149 252.99575342 -45 242 C-58.28247385 234.15207804 -66.02212524 222.52939791 -69.8531189 207.69699097 C-71.88835284 198.13598083 -72.45575446 189.01346719 -72.4765625 179.2578125 C-72.49091723 177.71221596 -72.50668203 176.16663194 -72.52377319 174.62106323 C-72.56510501 170.60706027 -72.59045742 166.5931352 -72.61126709 162.57897949 C-72.64748525 156.10703526 -72.70796857 149.63528161 -72.76975632 143.16353989 C-72.78883734 140.90941169 -72.80056063 138.65533562 -72.81118774 136.40115356 C-72.82138869 135.03452431 -72.83174565 133.66789621 -72.84228516 132.30126953 C-72.85202866 130.50715134 -72.85202866 130.50715134 -72.86196899 128.67678833 C-72.69625641 126.08049215 -72.69625641 126.08049215 -74 125 C-75.34015221 124.84417697 -76.68758903 124.74955858 -78.03515625 124.68359375 C-78.84404297 124.64169922 -79.65292969 124.59980469 -80.48632812 124.55664062 C-81.33646484 124.51732422 -82.18660156 124.47800781 -83.0625 124.4375 C-84.34350586 124.37272461 -84.34350586 124.37272461 -85.65039062 124.30664062 C-87.76672037 124.20023298 -89.88333813 124.09958269 -92 124 C-92.02312792 116.19424805 -92.04091738 108.38850405 -92.05181217 100.58272648 C-92.05704002 96.9585404 -92.06413587 93.3343777 -92.07543945 89.71020508 C-92.08627184 86.21540025 -92.09227758 82.72061796 -92.09487724 79.22579765 C-92.09763551 77.23760611 -92.10544688 75.24942369 -92.11329651 73.26124573 C-92.11337204 72.06007614 -92.11344757 70.85890656 -92.11352539 69.62133789 C-92.115746 68.55766495 -92.11796661 67.493992 -92.12025452 66.39808655 C-92 64 -92 64 -91 63 C-85.06 62.67 -79.12 62.34 -73 62 C-72.67 47.15 -72.34 32.3 -72 17 C-67.06033104 15.14762414 -62.77824543 13.57179513 -57.75512695 12.37426758 C-56.59064529 12.09420364 -55.42616364 11.81413971 -54.22639465 11.52558899 C-52.99281723 11.23483994 -51.75923981 10.94409088 -50.48828125 10.64453125 C-49.18882922 10.33522737 -47.88944788 10.02562632 -46.59013367 9.71574402 C-43.88209249 9.07116288 -41.17319352 8.43035722 -38.46362305 7.79223633 C-34.99863876 6.975859 -31.53607368 6.14969683 -28.07409382 5.32068348 C-24.75509887 4.52739243 -21.43411068 3.74260787 -18.11328125 2.95703125 C-16.87363113 2.6602095 -15.63398102 2.36338776 -14.35676575 2.05757141 C-13.20174057 1.78696396 -12.04671539 1.51635651 -10.85668945 1.23754883 C-9.84379349 0.99788895 -8.83089752 0.75822906 -7.78730774 0.51130676 C-5.10374312 0.01903075 -2.72017773 -0.17319172 0 0 Z M101.3125 114.5 C96.84539918 120.44094021 94 127.62828693 94 135 C108.85 135 123.7 135 139 135 C137.94212985 126.53703878 136.27843026 118.85568928 129.70703125 112.93359375 C119.6646769 106.13493624 110.27378597 106.16392003 101.3125 114.5 Z M1 125 C0.89133014 126.47182493 0.85097276 127.94877899 0.83886719 129.42456055 C0.82925964 130.36611496 0.8196521 131.30766937 0.80975342 132.27775574 C0.80550354 133.30371353 0.80125366 134.32967133 0.796875 135.38671875 C0.79117493 136.43648392 0.78547485 137.48624908 0.77960205 138.56782532 C0.77013302 140.79642727 0.76361056 143.02504335 0.75976562 145.25366211 C0.75009047 148.65568769 0.7190972 152.05710155 0.6875 155.45898438 C0.6809672 157.62239224 0.67571782 159.78580444 0.671875 161.94921875 C0.6595282 162.96505539 0.6471814 163.98089203 0.63446045 165.0275116 C0.6514264 170.43944971 0.90100277 174.35104162 4 179 C8.52182183 183.18268519 11.80422359 184.14965227 17.875 184.1875 C18.90367188 184.20167969 19.93234375 184.21585938 20.9921875 184.23046875 C24.05463488 183.99581369 26.23248861 183.29184572 29 182 C28.855625 181.14664063 28.71125 180.29328125 28.5625 179.4140625 C25.83526607 161.04311172 26.06923293 142.32497438 29 124 C24.52084672 123.97113662 20.04171709 123.95324813 15.5625 123.9375 C14.28310547 123.92912109 13.00371094 123.92074219 11.68554688 123.91210938 C10.47060547 123.90888672 9.25566406 123.90566406 8.00390625 123.90234375 C6.87799072 123.89710693 5.7520752 123.89187012 4.59204102 123.88647461 C2.07029129 123.70454552 2.07029129 123.70454552 1 125 Z M96 170 C94.67547101 172.88772193 94.67547101 172.88772193 95.8984375 175.19921875 C100.47422398 182.91026634 106.5619991 190.85355383 115.51171875 193.59765625 C129.00936492 195.78016419 139.66500529 193.39344874 150.90234375 185.6640625 C153.68844649 183.45385809 156.01140455 180.94098095 158.296875 178.22265625 C160 177 160 177 162.3828125 177.02734375 C165.72371492 178.26896271 167.56489694 180.02396002 170.125 182.5 C176.7570481 188.7551252 183.70428301 194.52821226 191 200 C190.67 190.1 190.34 180.2 190 170 C158.98 170 127.96 170 96 170 Z " fill="#1A74BA" transform="translate(92,0)"/>
<path d="M0 0 C0.69104324 -0.00175232 1.38208649 -0.00350464 2.09407043 -0.00531006 C4.3889107 -0.00972801 6.68367451 -0.0067908 8.97851562 -0.00341797 C10.56652847 -0.00409102 12.15454122 -0.00506106 13.74255371 -0.00631714 C17.07496112 -0.00779403 20.40734178 -0.00563983 23.73974609 -0.00097656 C28.02075073 0.00472073 32.30169268 0.00144168 36.58269501 -0.00454903 C39.86310299 -0.00815487 43.143496 -0.00701595 46.42390442 -0.00442123 C48.00283312 -0.00375203 49.58176317 -0.00458017 51.16069031 -0.00690079 C53.36367415 -0.0094277 55.56655511 -0.00558622 57.76953125 0 C59.65363708 0.00119339 59.65363708 0.00119339 61.57580566 0.00241089 C64.38476562 0.12939453 64.38476562 0.12939453 65.38476562 1.12939453 C65.49421672 4.20648745 65.53900672 7.2619535 65.54248047 10.33984375 C65.54756119 11.30743118 65.55264191 12.27501862 65.55787659 13.27192688 C65.56860925 15.38250689 65.57721797 17.4930985 65.58399582 19.60369492 C65.59576101 22.95054855 65.61521181 26.29727175 65.63711548 29.64407349 C65.69878253 39.16354991 65.75263069 48.68301638 65.78613281 58.20263672 C65.80715937 64.01997978 65.84253739 69.8370908 65.88689041 75.65430069 C65.9009994 77.86688617 65.90976125 80.07951278 65.91294479 82.29214096 C65.91789115 85.40333787 65.94114835 88.51392784 65.96826172 91.625 C65.96525558 92.52830551 65.96224945 93.43161102 65.95915222 94.36228943 C66.07563612 103.42968551 67.5126993 111.94626086 73.78710938 118.78955078 C78.10034575 122.40676368 82.08134851 122.6315811 87.56445312 122.49267578 C92.11306692 121.906774 95.17079071 120.40167284 98.38476562 117.12939453 C103.90629096 108.85399122 104.52973398 100.85413486 104.59008789 91.17675781 C104.59998749 90.19077103 104.60988708 89.20478424 104.62008667 88.18891907 C104.65157581 84.94253916 104.67640922 81.69614463 104.70117188 78.44970703 C104.72175227 76.1938337 104.74274903 73.93796413 104.7641449 71.68209839 C104.8192534 65.753978 104.86871207 59.82582345 104.91699219 53.89764404 C104.97613748 46.77981849 105.04230357 39.66205515 105.10729218 32.54428101 C105.20516044 21.73935695 105.2941132 10.93439239 105.38476562 0.12939453 C129.14476562 0.12939453 152.90476562 0.12939453 177.38476562 0.12939453 C177.38476562 56.22939453 177.38476562 112.32939453 177.38476562 170.12939453 C138.48963454 182.67621101 138.48963454 182.67621101 127.97558594 186.01074219 C126.36433712 186.52261786 124.7536931 187.03639991 123.14355469 187.55175781 C120.73045146 188.323932 118.31565927 189.09058721 115.90039062 189.85595703 C114.82268402 190.20262924 114.82268402 190.20262924 113.72320557 190.55630493 C110.82373024 191.46925991 108.44530323 192.12939453 105.38476562 192.12939453 C104.88976562 179.75439453 104.88976562 179.75439453 104.38476562 167.12939453 C100.0977497 170.67560468 100.0977497 170.67560468 96.07226562 174.50439453 C83.85395006 186.43856322 69.67212731 192.5446619 52.63476562 192.44189453 C51.66047607 192.43625488 50.68618652 192.43061523 49.68237305 192.42480469 C34.11749336 192.16251173 22.0301973 187.32371081 10.66992188 176.53955078 C-2.09025869 163.08137743 -6.69279626 146.07139353 -6.82055664 127.93579102 C-6.83045624 127.05117187 -6.84035583 126.16655273 -6.85055542 125.25512695 C-6.88204613 122.33694061 -6.90694611 119.41873944 -6.93164062 116.50048828 C-6.9522867 114.4305843 -6.97328468 112.3606838 -6.99461365 110.29078674 C-7.0385384 105.93566021 -7.07941884 101.5805196 -7.11791992 97.2253418 C-7.1662172 91.76874678 -7.22001846 86.31222565 -7.27587318 80.85570335 C-7.48227851 60.61463856 -7.65720455 40.37288266 -7.69907951 20.13072395 C-7.70305117 18.4151166 -7.70860971 16.69951212 -7.71582222 14.98391533 C-7.72495638 12.65095502 -7.72765052 10.31808335 -7.72827148 7.98510742 C-7.73072372 6.6774794 -7.73317596 5.36985138 -7.73570251 4.02259827 C-7.51374483 -1.30801282 -4.71956312 0.00298936 0 0 Z " fill="#2E358D" transform="translate(822.615234375,57.87060546875)"/>
<path d="M0 0 C0.81339844 0.66773437 1.62679687 1.33546875 2.46484375 2.0234375 C8.35936957 7.05512826 19.43921995 16.604916 20.16380501 24.8680172 C20.18194693 25.63226824 20.20008884 26.39651928 20.21878052 27.18392944 C20.24157578 28.06123718 20.26437103 28.93854492 20.28785706 29.84243774 C20.30775192 30.80757294 20.32764679 31.77270813 20.34814453 32.76708984 C20.37250076 33.78198486 20.39685699 34.79687988 20.42195129 35.8425293 C20.6384058 45.22894888 20.79687941 54.61676539 20.93959236 64.0045681 C21.0355845 70.30944089 21.14922291 76.61283974 21.30664062 82.91650391 C21.45860035 89.0134615 21.56529399 95.10968767 21.6406517 101.2080574 C21.67682537 103.52620877 21.72868803 105.84417327 21.79693985 108.16160202 C22.42137151 130.09359988 22.42137151 130.09359988 14.365448 138.72232056 C13.19455124 139.84977188 13.19455124 139.84977188 12 141 C10.55108068 142.71960938 9.11197573 144.44758836 7.6875 146.1875 C-7.76113309 162.83267094 -30.50597452 173.60648177 -53.125 175.22338867 C-72.27834845 175.89230486 -89.58061504 174.54770964 -107 166 C-108.39798828 165.32130859 -108.39798828 165.32130859 -109.82421875 164.62890625 C-116.55580103 161.16453545 -122.22753016 156.86621178 -128 152 C-128.82628906 151.3709375 -129.65257812 150.741875 -130.50390625 150.09375 C-133.22470129 147.81151817 -135.33637284 145.38926921 -137.5625 142.625 C-138.30628906 141.70976562 -139.05007813 140.79453125 -139.81640625 139.8515625 C-140.89728516 138.44003906 -140.89728516 138.44003906 -142 137 C-143.03957855 135.74916878 -143.03957855 135.74916878 -144.10015869 134.47306824 C-146.68443589 129.74879416 -146.59095526 125.88275109 -146.58105469 120.5793457 C-146.60120636 119.02445686 -146.60120636 119.02445686 -146.62176514 117.43815613 C-146.6597048 114.01716841 -146.66757274 110.59696617 -146.671875 107.17578125 C-146.68473456 104.78931866 -146.69819156 102.40285921 -146.71221924 100.0164032 C-146.73616116 95.01387223 -146.74358153 90.01161741 -146.74121094 85.0090332 C-146.74080506 78.61759566 -146.7953542 72.22794184 -146.86429977 65.83692646 C-146.90891666 60.90642773 -146.91688361 55.97635517 -146.91477203 51.04567528 C-146.91947425 48.69065403 -146.93706638 46.33562016 -146.9681015 43.98079872 C-147.23383398 21.73083785 -147.23383398 21.73083785 -140.02009583 13.89361572 C-139.3534642 13.26872253 -138.68683258 12.64382935 -138 12 C-136.95998084 10.81772493 -135.92571661 9.63030682 -134.90234375 8.43359375 C-119.77836977 -7.22007245 -101.55393568 -17.27867133 -80 -21 C-79.27296875 -21.13019531 -78.5459375 -21.26039062 -77.796875 -21.39453125 C-50.1201038 -25.35590117 -21.41745214 -18.10240303 0 0 Z " fill="#F9AE41" transform="translate(796,75)"/>
<path d="M0 0 C9.59669259 7.35065816 16.26730647 15.91047827 21 27 C21.31839844 27.68449219 21.63679687 28.36898437 21.96484375 29.07421875 C24.56952744 36.46588868 20.54373053 43.27766044 17.75439453 50.08544922 C7.56681721 75.94013575 9.6015904 111.55448003 20 137 C20.56589844 138.05703125 21.13179687 139.1140625 21.71484375 140.203125 C27.18690689 150.44341263 27.90647754 158.89320488 27.5 170.375 C27.47337274 171.98432539 27.44991944 173.59370651 27.4296875 175.203125 C27.23140409 186.76859591 27.23140409 186.76859591 26 188 C23.79675026 188.09960152 21.5902651 188.12799757 19.38476562 188.12939453 C18.69372238 188.13114685 18.00267914 188.13289917 17.29069519 188.13470459 C14.99585493 188.13912254 12.70109111 188.13618533 10.40625 188.1328125 C8.81823715 188.13348556 7.23022441 188.13445559 5.64221191 188.13571167 C2.3098045 188.13718857 -1.02257616 188.13503436 -4.35498047 188.13037109 C-8.6359851 188.1246738 -12.91692705 188.12795285 -17.19792938 188.13394356 C-20.47833736 188.1375494 -23.75873037 188.13641048 -27.03913879 188.13381577 C-28.6180675 188.13314656 -30.19699754 188.1339747 -31.77592468 188.13629532 C-33.97890853 188.13882223 -36.18178949 188.13498075 -38.38476562 188.12939453 C-40.26887146 188.12820114 -40.26887146 188.12820114 -42.19104004 188.12698364 C-45 188 -45 188 -46 187 C-46.11096906 185.60626352 -46.1539883 184.20703892 -46.16926575 182.80897522 C-46.18168808 181.90490936 -46.19411041 181.00084351 -46.20690918 180.06938171 C-46.2157312 179.06945694 -46.22455322 178.06953217 -46.23364258 177.03930664 C-46.24687057 175.99208435 -46.26009857 174.94486206 -46.27372742 173.86590576 C-46.30236889 171.58181622 -46.32898696 169.29770065 -46.35386086 167.01356697 C-46.39471484 163.39388997 -46.44395101 159.77442406 -46.49601746 156.15489197 C-46.64389278 145.8598376 -46.78698117 135.56480561 -46.89868164 125.26928711 C-46.96754729 118.97844294 -47.05524761 112.68809861 -47.15506554 106.39767265 C-47.18951407 104.00290313 -47.21699055 101.60802246 -47.23725319 99.2130909 C-47.26645672 95.84996096 -47.3196975 92.48797524 -47.37817383 89.12524414 C-47.38092316 88.14353745 -47.38367249 87.16183075 -47.38650513 86.15037537 C-47.56929419 78.01447673 -49.30207015 70.421871 -55.125 64.4375 C-59.37246117 61.22911732 -63.77062188 60.63790135 -69 61 C-74.25792311 62.5515183 -77.61047265 64.69438418 -81 69 C-84.62338768 75.9777438 -85.56727456 82.14842653 -85.43823242 89.92578125 C-85.43721024 90.96766098 -85.43618805 92.00954071 -85.43513489 93.08299255 C-85.42731192 96.49319577 -85.39140283 99.90248756 -85.35546875 103.3125 C-85.34545819 105.69237559 -85.33737508 108.07225999 -85.33113098 110.45214844 C-85.31027081 116.69202032 -85.26623127 122.93150422 -85.21636963 129.17120361 C-85.14085638 139.18604781 -85.1031642 149.20112797 -85.06087685 159.21615601 C-85.04314006 162.71619515 -85.01702311 166.21609163 -84.98930359 169.71606445 C-84.97609237 171.84716739 -84.96296996 173.97827088 -84.94995117 176.109375 C-84.93513199 177.57581703 -84.93513199 177.57581703 -84.92001343 179.07188416 C-84.91560745 179.96049637 -84.91120148 180.84910858 -84.90666199 181.76464844 C-84.90054492 182.53887146 -84.89442785 183.31309448 -84.88812542 184.11077881 C-85 186 -85 186 -86 188 C-95.23997552 188.02312524 -104.47994114 188.04091601 -113.71993923 188.05181217 C-118.00999915 188.05704061 -122.30003933 188.06413753 -126.59008789 188.07543945 C-130.726794 188.08626975 -134.86348108 188.09227714 -139.00020027 188.09487724 C-140.58192304 188.09673124 -142.16364471 188.10035136 -143.74535942 188.10573006 C-145.95322838 188.1129424 -148.16101773 188.11399086 -150.36889648 188.11352539 C-151.62798325 188.115746 -152.88707001 188.11796661 -154.18431091 188.12025452 C-157 188 -157 188 -158 187 C-158.33946098 182.99694331 -158.39978111 178.98990979 -158.45996094 174.97387695 C-158.49937185 172.96944755 -158.5813788 170.96600167 -158.6640625 168.96289062 C-158.81822106 158.04516087 -158.81822106 158.04516087 -154.46875 153.37890625 C-153.82357422 152.82920166 -153.17839844 152.27949707 -152.51367188 151.71313477 C-150.75330515 150.04850332 -150.75330515 150.04850332 -150.68969727 147.37719727 C-150.7540286 144.93424383 -150.7540286 144.93424383 -152.49609375 143.5859375 C-153.13675781 143.18632812 -153.77742188 142.78671875 -154.4375 142.375 C-156.62258992 140.61283071 -157.81710204 139.56532098 -158.6875 136.875 C-158.98554395 133.89456052 -159.01969808 130.99739132 -159 128 C-159.01161973 126.27993788 -159.02476766 124.55988572 -159.0390625 122.83984375 C-159.06757608 117.89251836 -159.0436089 112.94718761 -159 108 C-158.00097656 107.95101562 -157.00195312 107.90203125 -155.97265625 107.8515625 C-154.03712891 107.73941406 -154.03712891 107.73941406 -152.0625 107.625 C-150.77472656 107.55539063 -149.48695313 107.48578125 -148.16015625 107.4140625 C-146.59587891 107.20910156 -146.59587891 107.20910156 -145 107 C-138.28960232 93.57920464 -145.84207794 66.64541433 -150 53 C-151.91669278 47.335108 -153.77734485 41.87351916 -157.05737305 36.84741211 C-159.43328295 32.70709498 -159.53555362 29.16757133 -159.42578125 24.4765625 C-159.42249313 23.68978119 -159.41920502 22.90299988 -159.41581726 22.09237671 C-159.40545887 20.44349791 -159.38561611 18.79465368 -159.35668945 17.14599609 C-159.31226252 14.6114518 -159.29519477 12.07785587 -159.28320312 9.54296875 C-159.26979227 7.93748618 -159.25487296 6.33201535 -159.23828125 4.7265625 C-159.23089432 3.96622711 -159.22350739 3.20589172 -159.21589661 2.42251587 C-159.11837173 -2.88162827 -159.11837173 -2.88162827 -158 -4 C-155.79675026 -4.09960152 -153.5902651 -4.12799757 -151.38476562 -4.12939453 C-150.69372238 -4.13114685 -150.00267914 -4.13289917 -149.29069519 -4.13470459 C-146.99585493 -4.13912254 -144.70109111 -4.13618533 -142.40625 -4.1328125 C-140.81823715 -4.13348556 -139.23022441 -4.13445559 -137.64221191 -4.13571167 C-134.3098045 -4.13718857 -130.97742384 -4.13503436 -127.64501953 -4.13037109 C-123.3640149 -4.1246738 -119.08307295 -4.12795285 -114.80207062 -4.13394356 C-111.52166264 -4.1375494 -108.24126963 -4.13641048 -104.96086121 -4.13381577 C-103.3819325 -4.13314656 -101.80300246 -4.1339747 -100.22407532 -4.13629532 C-98.02109147 -4.13882223 -95.81821051 -4.13498075 -93.61523438 -4.12939453 C-91.73112854 -4.12820114 -91.73112854 -4.12820114 -89.80895996 -4.12698364 C-87 -4 -87 -4 -86 -3 C-85.91314397 -1.43827255 -85.89297781 0.12729344 -85.90234375 1.69140625 C-85.90717773 3.10776367 -85.90717773 3.10776367 -85.91210938 4.55273438 C-85.92467773 6.04256836 -85.92467773 6.04256836 -85.9375 7.5625 C-85.94201172 8.55958984 -85.94652344 9.55667969 -85.95117188 10.58398438 C-85.96299993 13.05604849 -85.97948151 15.52799518 -86 18 C-83.26678799 15.88817721 -81.05025356 14.06548191 -78.9375 11.3125 C-60.47662817 -11.48870219 -24.07888776 -15.5347663 0 0 Z " fill="#29A9E0" transform="translate(441,62)"/>
<path d="M0 0 C1.76753535 1.76753535 1.17086061 4.31558806 1.20532227 6.71313477 C1.2352401 8.54492027 1.2352401 8.54492027 1.26576233 10.41371155 C1.28274791 11.75627513 1.29962667 13.09884007 1.31640625 14.44140625 C1.33696947 15.80761861 1.35796577 17.17382451 1.37937927 18.5400238 C1.43466535 22.14194524 1.48404563 25.74392471 1.53222656 29.34594727 C1.58239403 33.01909572 1.63810485 36.69215955 1.69335938 40.36523438 C1.80102082 47.57675132 1.90244787 54.78833847 2 62 C3.11036621 62.01981934 4.22073242 62.03963867 5.36474609 62.06005859 C9.47614602 62.13601081 13.58718718 62.2247436 17.69824219 62.31738281 C19.47909473 62.35571565 21.26002584 62.39056089 23.04101562 62.421875 C25.59794234 62.46743271 28.1543261 62.52544107 30.7109375 62.5859375 C31.50994476 62.59748871 32.30895203 62.60903992 33.13217163 62.62094116 C38.77225659 62.77225659 38.77225659 62.77225659 41 65 C41.24291992 67.64428711 41.24291992 67.64428711 41.23046875 71.02734375 C41.22926025 72.28272949 41.22805176 73.53811523 41.22680664 74.83154297 C41.21431566 76.20020103 41.20119974 77.56885351 41.1875 78.9375 C41.17995675 80.32958825 41.17271675 81.72167817 41.16577148 83.11376953 C41.10256148 92.53795389 40.88839032 101.95619359 40.5625 111.375 C40.52342529 112.53249756 40.48435059 113.68999512 40.4440918 114.88256836 C40.40195557 115.93968018 40.35981934 116.99679199 40.31640625 118.0859375 C40.26141968 119.4788501 40.26141968 119.4788501 40.20532227 120.89990234 C40 123 40 123 39 124 C36.26298822 124.16010481 33.5483241 124.25946828 30.80859375 124.31640625 C29.98875504 124.33718735 29.16891632 124.35796844 28.32423401 124.37937927 C25.69541099 124.44496494 23.06648496 124.50380126 20.4375 124.5625 C18.65949439 124.60567667 16.88149935 124.64929067 15.10351562 124.69335938 C10.73578366 124.80065543 6.36794773 124.90189704 2 125 C1.92379987 131.72600022 1.87133708 138.45188868 1.83520508 145.17822266 C1.82013884 147.46537435 1.79968203 149.75249725 1.77368164 152.03955078 C1.73720394 155.33112707 1.72025166 158.62232062 1.70703125 161.9140625 C1.69154739 162.93303619 1.67606354 163.95200989 1.66011047 165.00186157 C1.65882998 170.42993931 1.89924096 174.32883678 5 179 C9.79537656 183.34581001 14.52413536 183.26442843 20.72265625 183.234375 C24.88064641 182.93702171 28.57614113 181.94351963 32.52734375 180.65625 C35.12850845 179.96589349 37.32224687 179.95317346 40 180 C40.13908484 187.62327904 40.245663 195.24642641 40.31087303 202.87068558 C40.34217342 206.41115411 40.38461736 209.95075407 40.45263672 213.49072266 C40.53036697 217.56160764 40.55942785 221.63158199 40.5859375 225.703125 C40.61690521 226.97303284 40.64787292 228.24294067 40.67977905 229.55133057 C40.68102953 232.80986477 40.63067783 235.8032094 40 239 C37.20385742 241.74267578 37.20385742 241.74267578 34 243 C33.32831787 243.29084473 32.65663574 243.58168945 31.96459961 243.88134766 C31.36655518 244.05714355 30.76851074 244.23293945 30.15234375 244.4140625 C29.47204102 244.61684814 28.79173828 244.81963379 28.09082031 245.02856445 C27.38022461 245.22538818 26.66962891 245.42221191 25.9375 245.625 C25.18436523 245.83664795 24.43123047 246.0482959 23.65527344 246.26635742 C1.63622273 252.28069049 -24.35784149 252.99575342 -45 242 C-58.28247385 234.15207804 -66.02212524 222.52939791 -69.8531189 207.69699097 C-71.88835284 198.13598083 -72.45575446 189.01346719 -72.4765625 179.2578125 C-72.49091723 177.71221596 -72.50668203 176.16663194 -72.52377319 174.62106323 C-72.56510501 170.60706027 -72.59045742 166.5931352 -72.61126709 162.57897949 C-72.64748525 156.10703526 -72.70796857 149.63528161 -72.76975632 143.16353989 C-72.78883734 140.90941169 -72.80056063 138.65533562 -72.81118774 136.40115356 C-72.82138869 135.03452431 -72.83174565 133.66789621 -72.84228516 132.30126953 C-72.85202866 130.50715134 -72.85202866 130.50715134 -72.86196899 128.67678833 C-72.69625641 126.08049215 -72.69625641 126.08049215 -74 125 C-75.34015221 124.84417697 -76.68758903 124.74955858 -78.03515625 124.68359375 C-78.84404297 124.64169922 -79.65292969 124.59980469 -80.48632812 124.55664062 C-81.33646484 124.51732422 -82.18660156 124.47800781 -83.0625 124.4375 C-84.34350586 124.37272461 -84.34350586 124.37272461 -85.65039062 124.30664062 C-87.76672037 124.20023298 -89.88333813 124.09958269 -92 124 C-92.02312792 116.19424805 -92.04091738 108.38850405 -92.05181217 100.58272648 C-92.05704002 96.9585404 -92.06413587 93.3343777 -92.07543945 89.71020508 C-92.08627184 86.21540025 -92.09227758 82.72061796 -92.09487724 79.22579765 C-92.09763551 77.23760611 -92.10544688 75.24942369 -92.11329651 73.26124573 C-92.11337204 72.06007614 -92.11344757 70.85890656 -92.11352539 69.62133789 C-92.115746 68.55766495 -92.11796661 67.493992 -92.12025452 66.39808655 C-92 64 -92 64 -91 63 C-85.06 62.67 -79.12 62.34 -73 62 C-72.67 47.15 -72.34 32.3 -72 17 C-67.06033104 15.14762414 -62.77824543 13.57179513 -57.75512695 12.37426758 C-56.59064529 12.09420364 -55.42616364 11.81413971 -54.22639465 11.52558899 C-52.99281723 11.23483994 -51.75923981 10.94409088 -50.48828125 10.64453125 C-49.18882922 10.33522737 -47.88944788 10.02562632 -46.59013367 9.71574402 C-43.88209249 9.07116288 -41.17319352 8.43035722 -38.46362305 7.79223633 C-34.99863876 6.975859 -31.53607368 6.14969683 -28.07409382 5.32068348 C-24.75509887 4.52739243 -21.43411068 3.74260787 -18.11328125 2.95703125 C-16.87363113 2.6602095 -15.63398102 2.36338776 -14.35676575 2.05757141 C-13.20174057 1.78696396 -12.04671539 1.51635651 -10.85668945 1.23754883 C-9.84379349 0.99788895 -8.83089752 0.75822906 -7.78730774 0.51130676 C-5.10374312 0.01903075 -2.72017773 -0.17319172 0 0 Z " fill="#2D368E" transform="translate(92,0)"/>
<path d="M0 0 C6.70134767 10.05202151 4.2533872 26.22956659 4.1953125 37.828125 C4.19157633 40.0305773 4.18873222 42.23303128 4.18673706 44.43548584 C4.17914815 50.19590956 4.15954099 55.95623035 4.1373291 61.71661377 C4.11676787 67.60923877 4.10771348 73.50188061 4.09765625 79.39453125 C4.07629013 90.9297324 4.04221225 102.4648576 4 114 C-12.20853068 93.2202647 -12.89975799 59.52441424 -9.98657227 34.62329102 C-8.38116844 22.47985182 -5.15017215 11.14463481 0 0 Z " fill="#6D7433" transform="translate(463,98)"/>
<path d="M0 0 C0.33 0 0.66 0 1 0 C1 34.32 1 68.64 1 104 C-8.3701438 91.50647493 -13.61700505 73.59336564 -14 58 C-14.03867187 57.18273437 -14.07734375 56.36546875 -14.1171875 55.5234375 C-14.65196742 35.38006062 -8.87788033 17.80693001 0 0 Z " fill="#D97F27" transform="translate(649,100)"/>
<path d="M0 0 C2.81966736 3.60614891 4.69119564 7.37749068 6.5 11.5625 C6.80824707 12.27269287 7.11649414 12.98288574 7.43408203 13.71459961 C17.25093893 36.83045025 17.03838556 65.08583632 7.953125 88.4609375 C6.08853917 93.03183172 4.08523468 97.52585569 2 102 C1.67 102 1.34 102 1 102 C0.05846002 96.45035589 -0.13694468 91.10711921 -0.11352539 85.48461914 C-0.11367142 84.55700775 -0.11381744 83.62939636 -0.1139679 82.67367554 C-0.11327485 79.62747811 -0.10551105 76.58134291 -0.09765625 73.53515625 C-0.09578991 71.41523777 -0.09436703 69.29531885 -0.09336853 67.17539978 C-0.08956038 61.6105733 -0.07974467 56.04577315 -0.06866455 50.48095703 C-0.05841379 44.7965531 -0.05386307 39.11214489 -0.04882812 33.42773438 C-0.03812083 22.28514472 -0.02106491 11.14257455 0 0 Z " fill="#4B2B6A" transform="translate(816,100)"/>
<path d="M0 0 C13.85150947 13.2237329 15.66385145 41.33697607 16.125 59.41015625 C16.14920988 60.96088846 16.17005487 62.51167693 16.1875 64.0625 C16.20063232 64.80177734 16.21376465 65.54105469 16.22729492 66.30273438 C16.23299239 70.0858564 16.15093711 71.77359433 14 75 C10.9609375 75.29296875 10.9609375 75.29296875 7.375 75.1875 C6.18648438 75.16042969 4.99796875 75.13335937 3.7734375 75.10546875 C2.85820312 75.07066406 1.94296875 75.03585938 1 75 C-0.20900322 24.02893891 -0.20900322 24.02893891 0 0 Z " fill="#1668A4" transform="translate(282,95)"/>
<path d="M0 0 C0.33 0 0.66 0 1 0 C1.02886984 3.97915159 1.04675406 7.95827653 1.0625 11.9375 C1.07087891 13.07380859 1.07925781 14.21011719 1.08789062 15.38085938 C1.09111328 16.46044922 1.09433594 17.54003906 1.09765625 18.65234375 C1.10289307 19.65257568 1.10812988 20.65280762 1.11352539 21.68334961 C1 24 1 24 0 25 C-1.51928038 25.07179964 -3.04167482 25.08392007 -4.5625 25.0625 C-5.38878906 25.05347656 -6.21507813 25.04445313 -7.06640625 25.03515625 C-8.02353516 25.01775391 -8.02353516 25.01775391 -9 25 C-7.79993836 15.83401198 -4.09925187 8.19850374 0 0 Z " fill="#2C3177" transform="translate(131,99)"/>
<path d="M0 0 C0 7.92 0 15.84 0 24 C-2.81406982 20.24790691 -4.54241545 16.73547374 -6.25 12.4375 C-6.53101562 11.76525391 -6.81203125 11.09300781 -7.1015625 10.40039062 C-9.12169051 5.36507154 -9.12169051 5.36507154 -8 2 C-5.01540871 0.04457812 -3.73585209 0 0 0 Z " fill="#2B3177" transform="translate(131,180)"/>
<path d="M0 0 C6.25 4.19921875 6.25 4.19921875 8 6 C8.61236753 9.21107008 8.32412921 10.51507562 6.50390625 13.23828125 C5.86324219 13.92277344 5.22257812 14.60726562 4.5625 15.3125 C3.92441406 16.00988281 3.28632813 16.70726562 2.62890625 17.42578125 C1 19 1 19 0 19 C0 12.73 0 6.46 0 0 Z " fill="#1668A4" transform="translate(283,201)"/>
</svg>
